<?xml version="1.0" ?><!DOCTYPE svg  PUBLIC '-//W3C//DTD SVG 1.1//EN'  'http://www.w3.org/Graphics/SVG/1.1/DTD/svg11.dtd'><svg height="512px" style="enable-background:new 0 0 512 512;" version="1.1" viewBox="0 0 512 512" width="512px" xml:space="preserve" xmlns="http://www.w3.org/2000/svg" xmlns:xlink="http://www.w3.org/1999/xlink"><g id="_x31_89_x2C__Bug_x2C__insect_x2C__spider_x2C__virus_x2C__App"><g><path d="M275.247,247.971c-10.393,10.421-24.799,16.855-40.659,16.855    c-15.858,0-30.237-6.435-40.629-16.855c-10.42-10.393-16.855-24.771-16.855-40.63c0-15.858,6.435-30.237,16.855-40.659    c10.393-10.391,24.771-16.826,40.629-16.826c15.859,0,30.266,6.436,40.659,16.826c10.393,10.422,16.827,24.801,16.827,40.659    C292.074,223.2,285.64,237.578,275.247,247.971 M266.42,409.75c-9.822,4.3-20.84,6.463-31.832,6.463    c-10.99,0-22.009-2.163-31.803-6.463c1.139,8.343,4.697,15.745,9.823,21.24c5.751,6.207,13.496,9.994,21.98,9.994    c8.513,0,16.258-3.787,22.009-9.994C261.694,425.495,265.254,418.093,266.42,409.75z M70.218,485.515    c-1.935,0-3.501-1.566-3.501-3.502c0-1.937,1.566-3.503,3.501-3.503h83.48c1.909,0,3.475,1.566,3.475,3.503    c0,1.936-1.566,3.502-3.475,3.502H70.218z M423.502,485.999c-1.908,0-3.502-1.595-3.502-3.503c0-1.936,1.594-3.502,3.502-3.502    h22.037c1.937,0,3.503,1.566,3.503,3.502c0,1.908-1.566,3.503-3.503,3.503H423.502z M229.322,485.999    c-1.937,0-3.502-1.595-3.502-3.503c0-1.936,1.566-3.502,3.502-3.502h176.158c1.936,0,3.501,1.566,3.501,3.502    c0,1.908-1.565,3.503-3.501,3.503H229.322z M296.288,352.605c1.395-0.256,2.875,0.371,3.615,1.681l26.224,45.442    c0.398,0.568,0.655,1.252,0.655,2.021v61.756h8.028c1.938,0,3.502,1.565,3.502,3.473c0,1.937-1.564,3.503-3.502,3.503H80.241    c-1.936,0-3.501-1.566-3.501-3.503c0-1.907,1.566-3.473,3.501-3.473h61.842V401.75c0-0.77,0.256-1.453,0.655-2.021l26.222-45.442    c0.797-1.396,2.449-2.021,3.958-1.623l-0.028-1.31c0-3.616,0.313-7.261,0.968-10.877l-41.854,24.174v53.613    c0,1.936-1.565,3.501-3.502,3.501c-1.907,0-3.502-1.565-3.502-3.501v-55.635c0-1.396,0.854-2.619,2.051-3.161l44.359-25.624    c1.31-0.74,2.876-0.542,3.958,0.341c1.196-4.071,2.876-8.086,5.011-12.016l1.651-3.017l-3.018-1.681    c-7.09-3.958-13.752-8.655-19.816-13.951c-0.313,0.597-0.797,1.139-1.452,1.479l-26.792,14.379    c0.483,1.566,0.712,3.246,0.712,4.955c0,4.754-1.908,9.082-5.04,12.215c-3.16,3.131-7.488,5.067-12.243,5.067    c-4.755,0-9.083-1.937-12.215-5.067c-3.132-3.133-5.068-7.461-5.068-12.215c0-4.784,1.936-9.112,5.068-12.243    c3.132-3.104,7.459-5.04,12.215-5.04c4.641,0,8.883,1.851,11.987,4.84l0.256,0.2c0.341,0.37,0.712,0.769,1.025,1.167    l26.622-14.322c-6.719-6.576-12.613-14.037-17.567-22.123c-2.705-4.44-5.125-9.11-7.232-13.922    c-0.626,0.654-1.537,1.053-2.506,1.053H97.182c-0.684,3.389-2.363,6.378-4.698,8.742c-3.132,3.131-7.46,5.067-12.215,5.067    c-4.641,0-8.883-1.851-11.986-4.841l-0.256-0.227c-3.104-3.133-5.069-7.461-5.069-12.244c0-4.612,1.852-8.854,4.841-11.958    l0.228-0.256c3.131-3.132,7.459-5.069,12.243-5.069c4.641,0,8.854,1.852,11.959,4.841l0.256,0.229    c2.335,2.335,4.014,5.353,4.698,8.712h29.781l0.143,0.028c-1.082-2.875-2.021-5.808-2.847-8.77    c-2.762-9.794-4.243-20.187-4.243-30.949c0-1.509,0.029-3.018,0.114-4.526l-46.41-26.793c-1.224-0.568-2.05-1.794-2.05-3.189    V99.09c0-1.936,1.566-3.502,3.502-3.502c1.908,0,3.502,1.566,3.502,3.502v81.658l41.997,24.23    c1.053-9.824,3.331-19.248,6.691-28.16l-29.355-50.851c-0.428-0.569-0.655-1.282-0.655-2.05V29.504    c0-1.937,1.566-3.502,3.501-3.502c1.908,0,3.502,1.565,3.502,3.502v93.531l26.394,45.726    c5.695-12.129,13.439-23.118,22.835-32.515c2.875-2.876,5.922-5.609,9.083-8.172l-20.472-20.5    c-2.193,1.338-4.755,2.078-7.489,2.078c-3.986,0-7.63-1.623-10.25-4.242c-2.648-2.647-4.271-6.264-4.271-10.25    c0-4.015,1.623-7.631,4.242-10.25c2.648-2.648,6.292-4.271,10.278-4.271c3.986,0,7.603,1.622,10.25,4.242    c2.648,2.647,4.271,6.264,4.271,10.278c0,2.705-0.77,5.268-2.107,7.46l20.699,20.7c0.171,0.17,0.313,0.341,0.427,0.512    c6.976-4.955,14.521-9.168,22.521-12.471c3.047-1.281,6.178-2.393,9.368-3.389l-21.042-21.041    c-2.192,1.311-4.754,2.078-7.488,2.078c-3.986,0-7.602-1.622-10.25-4.242c-2.648-2.647-4.271-6.292-4.271-10.278    c0-3.985,1.623-7.603,4.271-10.25s6.264-4.271,10.25-4.271c3.987,0,7.63,1.623,10.25,4.271c2.648,2.647,4.271,6.265,4.271,10.25    c0,2.733-0.769,5.296-2.079,7.489l22.123,22.123c0.512,0.54,0.854,1.195,0.968,1.879c8.798-2.136,17.994-3.274,27.447-3.274    c9.226,0,18.222,1.081,26.822,3.132c0.113-0.627,0.426-1.254,0.939-1.736l22.122-22.123c-1.338-2.193-2.106-4.756-2.106-7.489    c0-3.985,1.651-7.603,4.271-10.25c2.648-2.647,6.264-4.271,10.25-4.271c4.015,0,7.63,1.623,10.251,4.271    c2.647,2.647,4.271,6.265,4.271,10.25c0,3.986-1.623,7.631-4.243,10.251c-2.648,2.647-6.264,4.27-10.278,4.27    c-2.733,0-5.268-0.768-7.46-2.078l-20.87,20.87c3.359,1.025,6.634,2.222,9.852,3.56c7.829,3.245,15.232,7.346,22.095,12.158    l0.17-0.199l20.701-20.7c-1.34-2.192-2.079-4.755-2.079-7.46c0-4.015,1.622-7.631,4.242-10.278    c2.647-2.62,6.264-4.242,10.278-4.242c3.986,0,7.603,1.622,10.221,4.242c2.648,2.647,4.271,6.264,4.271,10.278    c0,3.986-1.623,7.603-4.242,10.222c-2.647,2.647-6.264,4.271-10.25,4.271c-2.732,0-5.296-0.74-7.488-2.078l-20.188,20.188    c3.305,2.647,6.465,5.494,9.453,8.484c9.311,9.311,17.027,20.187,22.693,32.23l26.223-45.441V29.504    c0-1.937,1.594-3.502,3.502-3.502c1.936,0,3.502,1.565,3.502,3.502v94.414c0,0.768-0.229,1.48-0.654,2.05l-29.156,50.51    c3.416,8.968,5.723,18.449,6.805,28.329l41.684-24.059V99.09c0-1.936,1.566-3.502,3.502-3.502s3.502,1.566,3.502,3.502v83.65    c0,1.396-0.826,2.621-2.05,3.189l-46.067,26.593c0.057,1.566,0.084,3.161,0.084,4.727c0,10.763-1.479,21.155-4.213,30.949    c-0.854,2.962-1.794,5.895-2.848,8.741h28.558c0.684-3.359,2.364-6.377,4.698-8.712l0.256-0.229    c3.104-2.989,7.346-4.841,11.987-4.841c4.755,0,9.083,1.938,12.215,5.069l0.228,0.256c2.989,3.104,4.84,7.346,4.84,11.958    c0,4.783-1.937,9.111-5.067,12.244l-0.257,0.227c-3.104,2.99-7.316,4.841-11.958,4.841c-4.784,0-9.11-1.937-12.243-5.067    l-0.229-0.257c-2.192-2.307-3.786-5.239-4.47-8.485h-29.753c-0.541,0-1.054-0.113-1.509-0.341    c-2.022,4.583-4.357,8.997-6.919,13.21c-5.04,8.287-11.133,15.889-18.023,22.607l25.738,13.838    c0.343-0.398,0.684-0.77,1.055-1.139c3.132-3.133,7.459-5.068,12.215-5.068c4.754,0,9.082,1.936,12.214,5.04    c3.132,3.131,5.068,7.459,5.068,12.243c0,4.754-1.937,9.082-5.068,12.215c-3.104,3.131-7.432,5.067-12.214,5.067    c-4.756,0-9.083-1.937-12.215-5.067c-3.133-3.133-5.068-7.461-5.068-12.215c0-1.709,0.256-3.389,0.712-4.926L310.098,305    c-0.371-0.199-0.684-0.455-0.939-0.74c-5.866,5.012-12.216,9.453-18.991,13.212l-3.019,1.681l1.651,3.017    c2.107,3.873,3.759,7.831,4.954,11.816c1.082-0.712,2.505-0.825,3.673-0.142l44.389,25.624c1.196,0.542,2.021,1.766,2.021,3.161    v55.635c0,1.936-1.566,3.501-3.474,3.501c-1.937,0-3.502-1.565-3.502-3.501V364.65l-41.513-23.945    c0.626,3.502,0.939,7.09,0.939,10.648V352.605z M319.777,463.506V402.66l-24.201-41.939c-0.313,2.078-0.74,4.128-1.253,6.15    c-1.339,5.096-3.331,10.051-5.865,14.663c-4.584,8.342-11.588,14.806-19.873,19.36c-10.052,5.553-22.01,8.314-33.997,8.314    c-11.986,0-23.944-2.762-33.996-8.314c-8.285-4.555-15.261-11.019-19.874-19.36c-2.534-4.612-4.527-9.567-5.837-14.663    c-0.569-2.164-1.025-4.357-1.338-6.578l-24.458,42.367v60.846H319.777z M234.588,257.822c13.952,0,26.565-5.666,35.705-14.777    c9.14-9.139,14.777-21.781,14.777-35.704c0-13.951-5.638-26.564-14.777-35.704c-9.14-9.111-21.752-14.776-35.705-14.776    c-13.922,0-26.564,5.665-35.704,14.776c-9.111,9.14-14.777,21.753-14.777,35.704c0,13.923,5.666,26.565,14.777,35.704    C208.024,252.156,220.667,257.822,234.588,257.822z" style="fill-rule:evenodd;clip-rule:evenodd;"/></g></g><g id="Layer_1"/></svg>